<?xml version="1.0" encoding="UTF-8"?>
<svg width="200px" height="200px" viewBox="0 0 200 200" version="1.1" xmlns="http://www.w3.org/2000/svg" xmlns:xlink="http://www.w3.org/1999/xlink">
    <!-- Generator: Sketch 51 (57462) - http://www.bohemiancoding.com/sketch -->
    <title>Group 14 Copy 4</title>
    <desc>Created with Sketch.</desc>
    <defs>
        <rect id="path-1" x="0" y="0" width="200" height="200" rx="40.6360021"></rect>
    </defs>
    <g id="Page-1" stroke="none" stroke-width="1" fill="none" fill-rule="evenodd">
        <g id="Group-14-Copy-4">
            <g id="Oval-6">
                <mask id="mask-2" fill="white">
                    <use xlink:href="#path-1"></use>
                </mask>
                <use id="Mask" fill="#1791FF" xlink:href="#path-1"></use>
                <ellipse fill="#FFFFFF" mask="url(#mask-2)" cx="99.6247636" cy="205.22015" rx="154.279059" ry="65.2678134"></ellipse>
            </g>
            <g id="Group-13-Copy" transform="translate(28.206212, 32.598070)">
                <path d="M0,2.31460856 L17.9564255,2.31460856" id="Path-17" stroke="#FFFFFF" stroke-width="9.64244118" stroke-linecap="round" stroke-linejoin="round"></path>
                <path d="M93.8668005,33.4713826 L126.540079,33.4713826" id="Path-17-Copy-2" stroke="#FFFFFF" stroke-width="9.64244118" stroke-linecap="round" stroke-linejoin="round"></path>
                <path d="M0,18.214366 L9.25674353,18.214366 C16.3166669,18.214366 22.0398656,23.9375647 22.0398656,30.9974881 L22.0398656,86.2299952" id="Path-17-Copy" stroke="#FFFFFF" stroke-width="9.64244118" stroke-linecap="round" stroke-linejoin="round"></path>
                <path d="M17.7191054,38.0859375 L15.5700652,39.8996786 L15.1524076,42.7164846 C16.908451,41.8664217 17.7864727,41.4413902 17.7864727,41.4413902 C17.7864727,41.4413902 17.7640169,40.322906 17.7191054,38.0859375 Z" id="Path-18" stroke="#FFFFFF" stroke-width="1.06287932" fill="#FFFFFF"></path>
                <ellipse id="Oval-4" fill="#1791FF" cx="11.0199328" cy="37.7228083" rx="6.19871219" ry="6.2047834"></ellipse>
                <path d="M0,61.4970392 L20.6788216,43.830642" id="Path-18-Copy" stroke="#FFFFFF" stroke-width="9.64244118" stroke-linecap="round" stroke-linejoin="round"></path>
                <path d="M78.0564865,24.1471563 C84.531029,17.9549988 91.2101149,11.5863761 98.0937441,5.04128824 L98.0937453,5.04128942 C104.893511,-1.42405948 115.565582,-1.43163141 122.374515,5.02406199 C129.284118,11.5752017 135.942744,17.9495665 142.350393,24.1471563" id="Path-18-Copy-2" stroke="#FFFFFF" stroke-width="9.64244118" stroke-linecap="round" stroke-linejoin="round"></path>
                <path d="M40.8601015,2.31460856 L40.8601015,73.0082868 C40.8601015,80.3116558 46.7806518,86.2322062 54.0840208,86.2322062 L71.866311,86.2322062" id="Path-18-Copy-3" stroke="#FFFFFF" stroke-width="9.64244118" stroke-linecap="round" stroke-linejoin="round"></path>
                <path d="M80.5832584,50.8217955 L139.934464,50.8217955 L139.934464,56.3722658 C139.934464,72.7616487 126.648244,86.0478687 110.258861,86.0478687 L110.258861,86.0478687 C93.8694784,86.0478687 80.5832584,72.7616487 80.5832584,56.3722658 L80.5832584,50.8217955 Z" id="Rectangle-15" stroke="#FFFFFF" stroke-width="9.64244118" stroke-linecap="round" stroke-linejoin="round"></path>
                <polygon id="Path-19" fill="#FFFFFF" points="15.0019897 54.2381113 17.4452786 55.4343279 17.3123075 52.2006362 15.8012821 54.0022229"></polygon>
                <path d="M16.1855263,56.7416212 C16.756102,56.7416212 17.218645,55.8741625 17.218645,55.3030279 C17.218645,54.7318934 16.756102,54.2688974 16.1855263,54.2688974 C15.6149506,54.2688974 15.0039176,55.0720517 15.0039176,55.6431863 C15.0039176,56.2143208 15.6149506,56.7416212 16.1855263,56.7416212 Z" id="Oval-5" fill="#1791FF"></path>
            </g>
            <path d="M59.0908202,172.074535 C59.4114056,179.134922 62.3500607,182.87901 67.9068737,183.306912 C70.792142,183.199936 72.8759156,181.755788 74.1582571,178.974424 C74.7994278,177.476766 75.8145995,176.727948 77.2038028,176.727948 C79.3410386,177.048875 80.1959201,178.172101 79.7684729,180.097661 C77.9518225,185.339463 73.9979956,188.067299 67.9068737,188.28125 C58.6098981,187.853348 53.7477597,182.451164 53.3203125,172.074535 C53.9614832,161.911858 58.8770518,156.509674 68.0671656,155.867821 C73.1965314,156.081772 76.8297777,158.007303 78.9670135,161.644471 C79.715046,163.783982 78.8601645,165.06767 76.4023434,165.495572 C75.3337255,165.602547 74.4254139,165.014191 73.6773814,163.730484 C72.2881782,162.018875 70.4181249,161.109597 68.0671656,161.002621 C62.6172144,161.537499 59.6251292,165.2281 59.0908202,172.074535 Z M91.0194364,174.962861 L91.0194364,185.553387 C91.0194364,187.371971 90.0576947,188.28125 88.1341825,188.28125 C86.2106703,188.28125 85.2489286,187.371971 85.2489286,185.553387 L85.2489286,159.718921 C85.2489286,157.686386 86.4778208,156.670133 88.9356419,156.670133 L96.950236,156.670133 C104.644285,156.670133 108.491251,159.772378 108.491251,165.976959 C108.491251,170.897835 106.033467,173.786131 101.117825,174.641936 L108.010376,183.627837 C108.651547,184.26969 108.918697,184.965021 108.811835,185.71385 C108.598112,187.211507 107.63637,188.067299 105.926581,188.28125 C104.964825,188.28125 104.163374,187.853354 103.522203,186.99755 L94.5458578,174.962861 L91.0194364,174.962861 Z M91.0194364,161.804934 L91.0194364,169.988522 L96.7899441,169.988522 C100.74383,169.881547 102.720744,168.544373 102.720744,165.976959 C102.827605,163.08862 101.010982,161.697958 97.2708197,161.804934 L91.0194364,161.804934 Z M120.703966,169.18621 L120.703966,184.269687 C120.703966,186.409198 119.688794,187.478937 117.65842,187.478937 C115.734908,187.585913 114.826597,186.516173 114.933458,184.269687 L114.933458,159.879384 C114.933458,157.204995 116.10892,155.867821 118.45988,155.867821 C119.955945,155.760845 121.184837,156.670124 122.146593,158.595683 L130.802355,178.332574 L139.618408,158.595683 C140.473302,156.670124 141.648765,155.760845 143.14483,155.867821 C145.495789,155.867821 146.671251,157.204995 146.671251,159.879384 L146.671251,184.269687 C146.778113,186.516173 145.869801,187.585913 143.946289,187.478937 C141.915915,187.585913 140.900743,186.516173 140.900743,184.269687 L140.900743,169.18621 L133.8479,185.232462 C133.313591,186.73012 132.29842,187.478937 130.802355,187.478937 C129.413151,187.478937 128.39798,186.783607 127.756809,185.392925 L120.703966,169.18621 Z" id="CRM" fill="#1791FF"></path>
        </g>
    </g>
</svg>