<?xml version="1.0" encoding="UTF-8" standalone="no"?>
<svg height="30" viewBox="0 0 30 30" width="30" xmlns="http://www.w3.org/2000/svg" xmlns:xlink="http://www.w3.org/1999/xlink"><linearGradient id="a" x1="100%" x2="27.74022%" y1="-13.756686%" y2="100%"><stop offset="0" stop-color="#d6daec"/><stop offset="1" stop-color="#abacb5"/></linearGradient><g fill="none" fill-rule="evenodd" transform="translate(0 1)"><path d="m0 0h29v29h-29z" fill="#000" fill-rule="nonzero" opacity="0"/><g fill="url(#a)"><path d="m14.5435 8.5985c-4.698 0-8.526 3.828-8.526 8.526s3.828 8.526 8.526 8.526 8.526-3.828 8.526-8.526-3.828-8.526-8.526-8.526zm2.4795 12.5135-2.5665-1.392-2.61 1.3195s-.0725.0145-.1595-.0435-.0725-.145-.0725-.145l.5365-2.871-2.0735-2.088s-.0435-.0725-.029-.1595.087-.116.087-.116l2.9435-.3915 1.334-2.61s.0435-.0435.145-.0435.1595.0435.1595.0435l1.2615 2.639 2.9.464s.058.0435.0725.145c.0145.087-.0145.1595-.0145.1595l-2.117 2.001.4495 2.9145s0 .0725-.1015.1305-.145.0435-.145.0435z"/><path d="m11.078 4.2775c0-.174.058-.319.1595-.4495h-4.8575c-.406 0-.7395.3335-.7395.7395v3.7845c0 .203.087.406.2465.551l1.073.957c.203.174.464.232.7105.1595.9715-.9425 2.1315-1.682 3.4075-2.1605z"/><path d="m16.4865 4.2775c0-.174.058-.319.1595-.4495h-4.2485c.1015.1305.1595.2755.1595.4495v3.1465c.638-.1305 1.305-.203 1.9865-.203.667 0 1.3195.0725 1.943.1885z"/><path d="m22.707 3.828h-4.901c.1015.1305.1595.2755.1595.4495v3.5525c1.363.5075 2.581 1.305 3.596 2.32.1885 0 .348-.0725.4785-.203l1.16-1.044c.1595-.145.2465-.348.2465-.551v-3.7845c0-.406-.3335-.7395-.7395-.7395z"/></g></g></svg>
